<svg aria-hidden="true" style="width:0;height:0;position:absolute;overflow:hidden" xmlns="http://www.w3.org/2000/svg"><defs><symbol id="icon-arrow-right" viewBox="0 0 32 32"><path fill="none" stroke="#f4f4f4" style="stroke:var(--color1,#f4f4f4)" stroke-linejoin="round" stroke-linecap="round" stroke-width="2.667" d="m12 24 8-8-8-8"/></symbol><symbol id="icon-geo" viewBox="0 0 32 32"><path fill="#fff" style="fill:var(--color1,#fff)" d="M16 2A11.018 11.018 0 0 0 5 13a10.892 10.892 0 0 0 2.216 6.6s.3.395.349.452L16 30l8.439-9.953c.044-.053.345-.447.345-.447l.001-.003A10.89 10.89 0 0 0 27 13 11.018 11.018 0 0 0 16 2zm0 15a4.004 4.004 0 0 1-3.695-2.469A4 4 0 1 1 20 13a4.004 4.004 0 0 1-4 4z"/></symbol><symbol id="icon-arrow-down" viewBox="0 0 32 32"><path d="M3.76 9.143 0 12.622l16 14.806 16-14.806-3.76-3.479L16 20.445 3.76 9.143z"/></symbol><symbol id="icon-arrow-up" viewBox="0 0 32 32"><path style="fill:var(--color2,#4440f6)" d="M3.76 25.143 0 21.664 16 6.858l16 14.806-3.76 3.479L16 13.841 3.76 25.143z"/></symbol><symbol id="icon-calendar" viewBox="0 0 32 32"><path d="M22.667 4H28a1.335 1.335 0 0 1 1.334 1.334v21.333A1.335 1.335 0 0 1 28 28.001H4a1.33 1.33 0 0 1-1.333-1.334V5.334A1.333 1.333 0 0 1 4 4h5.333V1.333H12V4h8V1.333h2.667V4zm4 10.667H5.334v10.667h21.333V14.667zm-6.667-8h-8v2.667H9.333V6.667h-4V12h21.333V6.667h-4v2.667h-2.667V6.667zM8 17.333h2.667V20H8v-2.667zm6.667 0h2.667V20h-2.667v-2.667zm6.666 0H24V20h-2.667v-2.667z"/></symbol><symbol id="icon-heart-empty" viewBox="0 0 32 32"><path fill="none" stroke="#4440f7" style="stroke:var(--color3,#4440f7)" stroke-linejoin="round" stroke-linecap="round" stroke-width="2" d="M9.333 4c-3.681 0-6.667 2.955-6.667 6.6 0 2.943 1.167 9.927 12.651 16.987a1.316 1.316 0 0 0 1.366 0c11.484-7.06 12.651-14.044 12.651-16.987 0-3.645-2.985-6.6-6.667-6.6S16 8 16 8s-2.985-4-6.667-4z"/></symbol><symbol id="icon-heart-fill" viewBox="0 0 32 32"><path style="fill:var(--color4,#4b48da)" d="M9.333 4c-3.681 0-6.667 2.955-6.667 6.6 0 2.943 1.167 9.927 12.651 16.987a1.316 1.316 0 0 0 1.366 0c11.484-7.06 12.651-14.044 12.651-16.987 0-3.645-2.985-6.6-6.667-6.6S16 8 16 8s-2.985-4-6.667-4z"/></symbol><symbol id="icon-favorite" viewBox="0 0 32 32"><path style="fill:var(--color2,#4440f6)" d="M32 16c0 8.837-7.163 16-16 16S0 24.837 0 16 7.163 0 16 0s16 7.163 16 16z"/><path fill="none" stroke="#f4f4f4" style="stroke:var(--color1,#f4f4f4)" stroke-linejoin="round" stroke-linecap="round" d="M22.63 10.457a4.111 4.111 0 0 0-4.496-.895 4.1 4.1 0 0 0-1.338.895l-.795.795-.795-.795a4.125 4.125 0 0 0-5.836 0 4.125 4.125 0 0 0 0 5.835l6.63 6.63 6.63-6.63a4.111 4.111 0 0 0 .895-4.496 4.116 4.116 0 0 0-.895-1.338v0z"/></symbol><symbol id="icon-home" viewBox="0 0 32 32"><path style="fill:var(--color2,#4440f6)" d="M32 16c0 8.837-7.163 16-16 16S0 24.837 0 16 7.163 0 16 0s16 7.163 16 16z"/><path fill="none" stroke="#f4f4f4" style="stroke:var(--color1,#f4f4f4)" stroke-linejoin="round" stroke-linecap="round" d="M9.25 13.75 16 8.5l6.75 5.25V22a1.503 1.503 0 0 1-1.5 1.5h-10.5a1.503 1.503 0 0 1-1.5-1.5v-8.25z"/><path fill="none" stroke="#f4f4f4" style="stroke:var(--color1,#f4f4f4)" stroke-linejoin="round" stroke-linecap="round" d="M13.75 23.5V16h4.5v7.5"/></symbol><symbol id="icon-read" viewBox="0 0 32 32"><path style="fill:var(--color2,#4440f6)" d="M32 16c0 8.837-7.163 16-16 16S0 24.837 0 16 7.163 0 16 0s16 7.163 16 16z"/><path fill="none" stroke="#f4f4f4" style="stroke:var(--color1,#f4f4f4)" stroke-linejoin="round" stroke-linecap="round" d="M8.5 9.25H13a3.004 3.004 0 0 1 3 3v10.5a2.25 2.25 0 0 0-2.25-2.25H8.5V9.25zM23.5 9.25H19a3.004 3.004 0 0 0-3 3v10.5a2.25 2.25 0 0 1 2.25-2.25h5.25V9.25z"/></symbol><symbol id="icon-moon-black" viewBox="0 0 32 32"><path fill="none" stroke="#5f6775" style="stroke:var(--moon-stroke-color)" stroke-linejoin="round" stroke-linecap="round" stroke-width="2.286" d="M28 17.053a11.994 11.994 0 0 1-7.873 10.182A12.003 12.003 0 0 1 4.338 18.56 12.002 12.002 0 0 1 14.946 3.999 9.335 9.335 0 0 0 28 17.053v0z"/></symbol><symbol id="icon-moon-color" viewBox="0 0 32 32"><path fill="none" stroke="#4b48db" style="stroke:var(--color6,#4b48db)" stroke-linejoin="round" stroke-linecap="round" stroke-width="2.286" d="M28 17.053a11.994 11.994 0 0 1-7.873 10.182A12.003 12.003 0 0 1 4.338 18.56 12.002 12.002 0 0 1 14.946 3.999 9.335 9.335 0 0 0 28 17.053v0z"/></symbol><symbol id="icon-search-black" viewBox="0 0 32 32"><path d="M13.333 23.6c2.367 0 4.665-.753 6.529-2.138l5.861 5.568 1.885-1.791-5.861-5.568a9.755 9.755 0 0 0 2.252-6.204c0-5.587-4.785-10.133-10.667-10.133S2.665 7.88 2.665 13.467c0 5.587 4.785 10.133 10.667 10.133zm0-17.733c4.412 0 8 3.409 8 7.6s-3.588 7.6-8 7.6-8-3.409-8-7.6 3.588-7.6 8-7.6z"/></symbol><symbol id="icon-sun-black" viewBox="0 0 32 32"><path fill="none" stroke="#5f6775" style="stroke:var(--color5,#5f6775)" stroke-linejoin="round" stroke-linecap="round" stroke-width="2.286" d="M16 1.778v2.586m0 23.272v2.586M5.941 5.941l1.836 1.836m16.446 16.446 1.836 1.836M1.778 16h2.586m23.272 0h2.586M5.941 26.059l1.836-1.836M24.223 7.777l1.836-1.836M22.465 16a6.465 6.465 0 1 1-12.93 0 6.465 6.465 0 0 1 12.93 0z"/></symbol><symbol id="icon-sun-color" viewBox="0 0 32 32"><path fill="none" stroke="#4b48db" style="stroke:var(--sun-stroke-color)" stroke-linejoin="round" stroke-linecap="round" stroke-width="2.286" d="M16 1.778v2.586m0 23.272v2.586M5.941 5.941l1.836 1.836m16.446 16.446 1.836 1.836M1.778 16h2.586m23.272 0h2.586M5.941 26.059l1.836-1.836M24.223 7.777l1.836-1.836M22.465 16a6.465 6.465 0 1 1-12.93 0 6.465 6.465 0 0 1 12.93 0z"/></symbol><symbol id="icon-close" viewBox="0 0 32 32"><path d="M19.141 16.123 29.817 5.455a2.196 2.196 0 0 0-3.098-3.095L16.043 12.918 5.301 2.184a2.202 2.202 0 0 0-2.983.115 2.193 2.193 0 0 0-.115 2.98l10.72 10.844L2.422 26.484a2.203 2.203 0 0 0-.767 1.582c-.012.302.039.604.15.885.11.282.278.538.492.751s.47.381.752.492a2.203 2.203 0 0 0 2.47-.615l10.479-10.471 10.413 10.405a2.202 2.202 0 0 0 2.983-.115 2.194 2.194 0 0 0 .115-2.979L19.14 16.124z"/></symbol><symbol id="icon-menu" viewBox="0 0 32 32"><path d="M2.666 8A1.335 1.335 0 0 1 4 6.666h24A1.33 1.33 0 0 1 29.333 8 1.333 1.333 0 0 1 28 9.334H4A1.335 1.335 0 0 1 2.666 8zm0 8.043A1.33 1.33 0 0 1 4 14.71h24a1.333 1.333 0 1 1 0 2.666H4a1.333 1.333 0 0 1-1.334-1.333zM4 22.752a1.337 1.337 0 0 0-1.334 1.333A1.33 1.33 0 0 0 4 25.418h24a1.333 1.333 0 1 0 0-2.666H4z"/></symbol><symbol id="icon-toggle-dark" viewBox="0 0 61 32"><path style="fill:var(--color1,#4b48db)" d="M15.238 1.524h30.476C53.709 1.524 60.19 8.005 60.19 16s-6.481 14.476-14.476 14.476H15.238C7.243 30.476.762 23.995.762 16S7.243 1.524 15.238 1.524z"/><path style="fill:var(--color2,#fff)" d="M57.905 16c0 6.733-5.458 12.19-12.19 12.19S33.525 22.732 33.525 16c0-6.733 5.458-12.19 12.19-12.19S57.905 9.268 57.905 16z"/><path fill="none" stroke="#fff" style="stroke:var(--color2,#fff)" stroke-width="1.524" d="M15.238 1.524h30.476C53.709 1.524 60.19 8.005 60.19 16s-6.481 14.476-14.476 14.476H15.238C7.243 30.476.762 23.995.762 16S7.243 1.524 15.238 1.524z"/></symbol><symbol id="icon-toggle-light" viewBox="0 0 64 32"><path style="fill:var(--color2,#fff)" d="M16 .484h32C56.569.484 63.516 7.431 63.516 16S56.569 31.516 48 31.516H16C7.431 31.516.484 24.569.484 16S7.431.484 16 .484z"/><path style="fill:var(--color1,#4b48db)" d="M27.2 16c0 7.069-5.731 12.8-12.8 12.8S1.6 23.069 1.6 16c0-7.069 5.731-12.8 12.8-12.8S27.2 8.931 27.2 16z"/><path fill="none" stroke="#4b48db" style="stroke:var(--color1,#4b48db)" stroke-width=".968" d="M16 .484h32C56.569.484 63.516 7.431 63.516 16S56.569 31.516 48 31.516H16C7.431 31.516.484 24.569.484 16S7.431.484 16 .484z"/></symbol><symbol id="prew-arrow" viewBox="0 0 18 32"><path d="m6.464 16 11.314 11.314-3.232 3.232L0 16 14.546 1.454l3.232 3.232L6.464 16z"/></symbol><symbol id="next-arrow" viewBox="0 0 19 32"><path d="M10.15 16 1.097 6.95l4.525-4.528L19.2 16 5.622 29.578 1.097 25.05 10.15 16z"/></symbol><symbol id="Vector-1" viewBox="0 0 43 32"><path fill="#00dd73" style="fill:var(--color1,#00dd73)" d="M40.501 1.584a1.595 1.595 0 0 0-1.098.485L14.934 26.538 4.865 16.469a1.6 1.6 0 1 0-2.263 2.261l.001.001 11.2 11.2c.289.289.689.468 1.131.468s.841-.179 1.131-.468l25.6-25.6a1.6 1.6 0 0 0-1.115-2.747l-.05.001h.002z"/></symbol><symbol id="heartActive" viewBox="0 0 37 32"><path fill="#4b48da" d="M9.778 0C4.87 0 .889 3.94.889 8.8c0 3.924 1.556 13.236 16.868 22.649a1.749 1.749 0 0 0 1.82 0C34.889 22.036 36.444 12.724 36.444 8.8c0-4.86-3.98-8.8-8.889-8.8s-8.889 5.333-8.889 5.333S14.686 0 9.777 0z"/></symbol><symbol id="heartDisable" viewBox="0 0 37 32"><path fill="none" stroke="#4440f7" stroke-linejoin="round" stroke-linecap="round" stroke-width="2.286" d="M10.666 2.286c-4.207 0-7.619 3.377-7.619 7.543 0 3.363 1.333 11.345 14.458 19.413a1.501 1.501 0 0 0 1.56 0c13.125-8.069 14.458-16.05 14.458-19.413 0-4.166-3.412-7.543-7.619-7.543s-7.619 4.571-7.619 4.571-3.412-4.571-7.619-4.571z"/></symbol><symbol id="icon-telegram" viewBox="4 4 25 25"><path d="M16 5.12c6.009 0 10.88 4.871 10.88 10.88S22.009 26.88 16 26.88 5.12 22.009 5.12 16 9.991 5.12 16 5.12zm3.753 15.315c.2-.614 1.138-6.733 1.253-7.939.035-.365-.081-.608-.306-.716-.273-.131-.678-.066-1.148.104-.644.232-8.881 3.729-9.357 3.932-.451.192-.878.401-.878.704 0 .213.127.333.475.457.362.129 1.275.406 1.814.554.519.143 1.11.019 1.441-.187.351-.218 4.402-2.929 4.692-3.166s.522.067.285.305c-.237.237-3.018 2.936-3.385 3.31-.445.454-.129.924.17 1.112.341.215 2.794 1.86 3.164 2.124s.744.383 1.087.383c.343-.001.523-.453.694-.977z"/></symbol><symbol id="icon-mail" viewBox="-1 -1 35 35"><path d="M16 .64C7.517.64.64 7.517.64 16S7.517 31.36 16 31.36 31.36 24.483 31.36 16 24.483.64 16 .64zM9.97 11.2h12.032c.638 0 .309.819-.038 1.029-.347.208-5.152 3.115-5.333 3.222s-.411.16-.645.16h-.026c-.227 0-.439-.059-.624-.164l.006.003-5.334-3.222c-.347-.21-.675-1.029-.038-1.029zM22.4 20c0 .336-.403.8-.71.8H10.311c-.307 0-.71-.464-.71-.8v-5.835c0-.147-.003-.338.275-.176l5.467 3.224c.164.102.363.162.576.162l.071-.002h-.003c.234 0 .403-.018.645-.16l5.494-3.222c.278-.163.275.029.275.176v5.834z"/></symbol><symbol id="icon-github" viewBox="0 0 32 32"><path d="M14.533 2.8C8.4 3.467 3.466 8.4 2.8 14.4c-.667 6.267 2.933 11.867 8.4 14 .4.133.8-.133.8-.667V25.6s-.533.133-1.2.133c-1.867 0-2.667-1.6-2.8-2.533-.133-.533-.4-.933-.8-1.333-.4-.133-.533-.133-.533-.267 0-.267.4-.267.533-.267.8 0 1.467.933 1.733 1.333.667 1.067 1.467 1.333 1.867 1.333.533 0 .933-.133 1.2-.267.133-.933.533-1.867 1.333-2.4C10.266 20.665 8 18.932 8 15.999c0-1.467.667-2.933 1.6-4-.133-.267-.267-.933-.267-1.867 0-.533 0-1.333.4-2.133 0 0 1.867 0 3.733 1.733.667-.267 1.6-.4 2.533-.4s1.867.133 2.667.4c1.733-1.733 3.733-1.733 3.733-1.733.267.8.267 1.6.267 2.133 0 1.067-.133 1.6-.267 1.867.933 1.067 1.6 2.4 1.6 4 0 2.933-2.267 4.667-5.333 5.333.8.667 1.333 1.867 1.333 3.067v3.467c0 .4.4.8.933.667 4.933-2 8.4-6.8 8.4-12.4 0-8-6.8-14.267-14.8-13.333z"/></symbol><symbol id="icon-linkedin" viewBox="0 0 32 32"><path d="M16 3.2C8.931 3.2 3.2 8.931 3.2 16S8.931 28.8 16 28.8 28.8 23.069 28.8 16c0-7.069-5.731-12.8-12.8-12.8zm-4.804 5.763c.898 0 1.497.598 1.497 1.396s-.598 1.396-1.596 1.396c-.898.001-1.497-.598-1.497-1.396s.598-1.396 1.596-1.396zm1.604 12.37H9.6V12.8h3.2v8.533zm10.667 0h-3.012V16.67c0-1.29-.803-1.587-1.104-1.587s-1.306.198-1.306 1.587v4.663h-3.111V12.8h3.113v1.19c.401-.694 1.204-1.19 2.71-1.19s2.71 1.19 2.71 3.87v4.663z"/></symbol></defs></svg>