<svg aria-hidden="true" style="position: absolute; width: 0; height: 0; overflow: hidden;" version="1.1" xmlns="http://www.w3.org/2000/svg" xmlns:xlink="http://www.w3.org/1999/xlink">
<defs>

<symbol id="icon-arrow-right" viewBox="0 0 32 32">
<path fill="none" stroke="#f4f4f4" style="stroke: var(--color1, #f4f4f4)" stroke-linejoin="round" stroke-linecap="round" stroke-miterlimit="4" stroke-width="2.6667" d="M12 24l8-8-8-8"></path>
</symbol>

<symbol id="icon-geo" viewBox="0 0 32 32">
<path fill="#fff" style="fill: var(--color1, #fff)" d="M16 2c-2.916 0.003-5.712 1.163-7.774 3.226s-3.222 4.858-3.226 7.774c-0.003 2.383 0.775 4.702 2.216 6.6 0 0 0.3 0.395 0.349 0.452l8.435 9.948 8.439-9.953c0.044-0.053 0.345-0.447 0.345-0.447l0.001-0.003c1.44-1.897 2.218-4.215 2.215-6.597-0.003-2.916-1.163-5.712-3.226-7.774s-4.858-3.222-7.774-3.226zM16 17c-0.791 0-1.564-0.235-2.222-0.674s-1.171-1.064-1.473-1.795c-0.303-0.731-0.382-1.535-0.228-2.311s0.535-1.489 1.095-2.048 1.272-0.94 2.048-1.095c0.776-0.154 1.58-0.075 2.311 0.228s1.356 0.815 1.795 1.473c0.44 0.658 0.674 1.431 0.674 2.222-0.001 1.060-0.423 2.077-1.173 2.827s-1.767 1.172-2.827 1.173z"></path>
</symbol>

<symbol id="icon-arrow-down" viewBox="0 0 32 32">
<path   d="M3.76 9.143l-3.76 3.479 16 14.806 16-14.806-3.76-3.479-12.24 11.302-12.24-11.302z"></path>
</symbol>

<symbol id="icon-arrow-up" viewBox="0 0 32 32">
<path  style="fill: var(--color2, #4440f6)" d="M3.76 25.143l-3.76-3.479 16-14.806 16 14.806-3.76 3.479-12.24-11.302-12.24 11.302z"></path>
</symbol>

<symbol id="icon-calendar" viewBox="0 0 32 32">
<path   d="M22.667 4h5.333c0.354 0 0.693 0.14 0.943 0.391s0.391 0.589 0.391 0.943v21.333c0 0.354-0.14 0.693-0.391 0.943s-0.589 0.391-0.943 0.391h-24c-0.354 0-0.693-0.14-0.943-0.391s-0.39-0.589-0.39-0.943v-21.333c0-0.354 0.14-0.693 0.39-0.943s0.589-0.391 0.943-0.391h5.333v-2.667h2.667v2.667h8v-2.667h2.667v2.667zM26.667 14.667h-21.333v10.667h21.333v-10.667zM20 6.667h-8v2.667h-2.667v-2.667h-4v5.333h21.333v-5.333h-4v2.667h-2.667v-2.667zM8 17.333h2.667v2.667h-2.667v-2.667zM14.667 17.333h2.667v2.667h-2.667v-2.667zM21.333 17.333h2.667v2.667h-2.667v-2.667z"></path>
</symbol>

<symbol id="icon-heart-empty" viewBox="0 0 32 32">
<path fill="none" stroke="#4440f7" style="stroke: var(--color3, #4440f7)" stroke-linejoin="round" stroke-linecap="round" stroke-miterlimit="4" stroke-width="2" d="M9.333 4c-3.681 0-6.667 2.955-6.667 6.6 0 2.943 1.167 9.927 12.651 16.987 0.206 0.125 0.442 0.191 0.683 0.191s0.477-0.066 0.683-0.191c11.484-7.060 12.651-14.044 12.651-16.987 0-3.645-2.985-6.6-6.667-6.6s-6.667 4-6.667 4-2.985-4-6.667-4z"></path>
</symbol>

<symbol id="icon-heart-fill" viewBox="0 0 32 32">
<path  style="fill: var(--color4, #4b48da)" d="M9.333 4c-3.681 0-6.667 2.955-6.667 6.6 0 2.943 1.167 9.927 12.651 16.987 0.206 0.125 0.442 0.191 0.683 0.191s0.477-0.066 0.683-0.191c11.484-7.060 12.651-14.044 12.651-16.987 0-3.645-2.985-6.6-6.667-6.6s-6.667 4-6.667 4-2.985-4-6.667-4z"></path>
</symbol>

<symbol id="icon-favorite" viewBox="0 0 32 32">
<path  style="fill: var(--color2, #4440f6)" d="M32 16c0 8.837-7.163 16-16 16s-16-7.163-16-16c0-8.837 7.163-16 16-16s16 7.163 16 16z"></path>
<path fill="none" stroke="#f4f4f4" style="stroke: var(--color1, #f4f4f4)" stroke-linejoin="round" stroke-linecap="round" stroke-miterlimit="4" stroke-width="1" d="M22.63 10.457c-0.383-0.383-0.838-0.687-1.338-0.895s-1.037-0.314-1.579-0.314c-0.542 0-1.078 0.107-1.579 0.314s-0.955 0.511-1.338 0.895l-0.795 0.795-0.795-0.795c-0.774-0.774-1.823-1.208-2.918-1.208s-2.144 0.435-2.918 1.208c-0.774 0.774-1.208 1.823-1.208 2.918s0.435 2.144 1.208 2.917l6.63 6.63 6.63-6.63c0.383-0.383 0.687-0.838 0.895-1.338s0.314-1.037 0.314-1.579c0-0.542-0.107-1.078-0.314-1.579s-0.512-0.955-0.895-1.338v0z"></path>
</symbol>

<symbol id="icon-home" viewBox="0 0 32 32">
<path  style="fill: var(--color2, #4440f6)" d="M32 16c0 8.837-7.163 16-16 16s-16-7.163-16-16c0-8.837 7.163-16 16-16s16 7.163 16 16z"></path>
<path fill="none" stroke="#f4f4f4" style="stroke: var(--color1, #f4f4f4)" stroke-linejoin="round" stroke-linecap="round" stroke-miterlimit="4" stroke-width="1" d="M9.25 13.75l6.75-5.25 6.75 5.25v8.25c0 0.398-0.158 0.779-0.439 1.061s-0.663 0.439-1.061 0.439h-10.5c-0.398 0-0.779-0.158-1.061-0.439s-0.439-0.663-0.439-1.061v-8.25z"></path>
<path fill="none" stroke="#f4f4f4" style="stroke: var(--color1, #f4f4f4)" stroke-linejoin="round" stroke-linecap="round" stroke-miterlimit="4" stroke-width="1" d="M13.75 23.5v-7.5h4.5v7.5"></path>
</symbol>

<symbol id="icon-read" viewBox="0 0 32 32">
<path  style="fill: var(--color2, #4440f6)" d="M32 16c0 8.837-7.163 16-16 16s-16-7.163-16-16c0-8.837 7.163-16 16-16s16 7.163 16 16z"></path>
<path fill="none" stroke="#f4f4f4" style="stroke: var(--color1, #f4f4f4)" stroke-linejoin="round" stroke-linecap="round" stroke-miterlimit="4" stroke-width="1" d="M8.5 9.25h4.5c0.796 0 1.559 0.316 2.121 0.879s0.879 1.326 0.879 2.121v10.5c0-0.597-0.237-1.169-0.659-1.591s-0.994-0.659-1.591-0.659h-5.25v-11.25z"></path>
<path fill="none" stroke="#f4f4f4" style="stroke: var(--color1, #f4f4f4)" stroke-linejoin="round" stroke-linecap="round" stroke-miterlimit="4" stroke-width="1" d="M23.5 9.25h-4.5c-0.796 0-1.559 0.316-2.121 0.879s-0.879 1.326-0.879 2.121v10.5c0-0.597 0.237-1.169 0.659-1.591s0.994-0.659 1.591-0.659h5.25v-11.25z"></path>
</symbol>

<symbol id="icon-moon-black" viewBox="0 0 32 32">
<path fill="none" stroke="#5f6775" style="stroke: var(--moon-stroke-color)" stroke-linejoin="round" stroke-linecap="round" stroke-miterlimit="4" stroke-width="2.2857" d="M28 17.053c-0.21 2.27-1.061 4.433-2.456 6.236s-3.273 3.172-5.417 3.946c-2.144 0.774-4.464 0.922-6.688 0.426s-4.262-1.615-5.874-3.227c-1.612-1.612-2.731-3.649-3.227-5.874s-0.348-4.544 0.426-6.688 2.143-4.023 3.946-5.417c1.803-1.394 3.966-2.246 6.236-2.456-1.329 1.798-1.968 4.013-1.802 6.242s1.127 4.325 2.708 5.906c1.581 1.581 3.676 2.542 5.906 2.708s4.444-0.473 6.242-1.802v0z"></path>
</symbol>

<symbol id="icon-moon-color" viewBox="0 0 32 32">
<path fill="none" stroke="#4b48db" style="stroke: var(--color6, #4b48db)" stroke-linejoin="round" stroke-linecap="round" stroke-miterlimit="4" stroke-width="2.2857" d="M28 17.053c-0.21 2.27-1.061 4.433-2.456 6.236s-3.273 3.172-5.417 3.946c-2.144 0.774-4.464 0.922-6.688 0.426s-4.262-1.615-5.874-3.227c-1.612-1.612-2.731-3.649-3.227-5.874s-0.348-4.544 0.426-6.688 2.143-4.023 3.946-5.417c1.803-1.394 3.966-2.246 6.236-2.456-1.329 1.798-1.968 4.013-1.802 6.242s1.127 4.325 2.708 5.906c1.581 1.581 3.676 2.542 5.906 2.708s4.444-0.473 6.242-1.802v0z"></path>
</symbol>

<symbol id="icon-search-black" viewBox="0 0 32 32">
<path d="M13.333 23.6c2.367-0 4.665-0.753 6.529-2.138l5.861 5.568 1.885-1.791-5.861-5.568c1.459-1.771 2.251-3.955 2.252-6.204 0-5.587-4.785-10.133-10.667-10.133s-10.667 4.546-10.667 10.133c0 5.587 4.785 10.133 10.667 10.133zM13.333 5.867c4.412 0 8 3.409 8 7.6s-3.588 7.6-8 7.6c-4.412 0-8-3.409-8-7.6s3.588-7.6 8-7.6z"></path>
</symbol>

<symbol id="icon-sun-black" viewBox="0 0 32 32">
<path fill="none" stroke="#5f6775" style="stroke: var(--color5, #5f6775)" stroke-linejoin="round" stroke-linecap="round" stroke-miterlimit="4" stroke-width="2.2857" d="M16 1.778v2.586M16 27.636v2.586M5.941 5.941l1.836 1.836M24.223 24.223l1.836 1.836M1.778 16h2.586M27.636 16h2.586M5.941 26.059l1.836-1.836M24.223 7.777l1.836-1.836M22.465 16c0 3.57-2.894 6.465-6.465 6.465s-6.465-2.894-6.465-6.465c0-3.57 2.894-6.465 6.465-6.465s6.465 2.894 6.465 6.465z"></path>
</symbol>

<symbol id="icon-sun-color" viewBox="0 0 32 32">
<path fill="none" stroke="#4b48db" style="stroke: var(--sun-stroke-color)" stroke-linejoin="round" stroke-linecap="round" stroke-miterlimit="4" stroke-width="2.2857" d="M16 1.778v2.586M16 27.636v2.586M5.941 5.941l1.836 1.836M24.223 24.223l1.836 1.836M1.778 16h2.586M27.636 16h2.586M5.941 26.059l1.836-1.836M24.223 7.777l1.836-1.836M22.465 16c0 3.57-2.894 6.465-6.465 6.465s-6.465-2.894-6.465-6.465c0-3.57 2.894-6.465 6.465-6.465s6.465 2.894 6.465 6.465z"></path>
</symbol>

 <symbol id="icon-close" viewBox="0 0 32 32">
 <path d="M19.141 16.123 29.817 5.455a2.196 2.196 0 0 0-3.098-3.095L16.043 12.918 5.301 2.184a2.202 2.202 0 0 0-2.983.115 2.193 2.193 0 0 0-.115 2.98l10.72 10.844L2.422 26.484a2.203 2.203 0 0 0-.767 1.582c-.012.302.039.604.15.885.11.282.278.538.492.751s.47.381.752.492a2.203 2.203 0 0 0 2.47-.615l10.479-10.471 10.413 10.405a2.202 2.202 0 0 0 2.983-.115 2.194 2.194 0 0 0 .115-2.979L19.14 16.124z" />
    </symbol>
    
 <symbol id="icon-menu" viewBox="0 0 32 32">
<path d="M2.666 8A1.335 1.335 0 0 1 4 6.666h24A1.33 1.33 0 0 1 29.333 8 1.333 1.333 0 0 1 28 9.334H4A1.335 1.335 0 0 1 2.666 8zm0 8.043A1.33 1.33 0 0 1 4 14.71h24a1.333 1.333 0 1 1 0 2.666H4a1.333 1.333 0 0 1-1.334-1.333zM4 22.752a1.337 1.337 0 0 0-1.334 1.333A1.33 1.33 0 0 0 4 25.418h24a1.333 1.333 0 1 0 0-2.666H4z" />
    </symbol>

<symbol id="icon-toggle-dark" viewBox="0 0 61 32">
<path style="fill: var(--color1, #4b48db)" d="M15.238 1.524h30.476c7.995 0 14.476 6.481 14.476 14.476s-6.481 14.476-14.476 14.476h-30.476c-7.995 0-14.476-6.481-14.476-14.476s6.481-14.476 14.476-14.476z"></path>
<path style="fill: var(--color2, #fff)" d="M57.905 16c0 6.733-5.458 12.19-12.19 12.19s-12.19-5.458-12.19-12.19c0-6.733 5.458-12.19 12.19-12.19s12.19 5.458 12.19 12.19z"></path>
<path fill="none" stroke="#fff" style="stroke: var(--color2, #fff)" stroke-linejoin="miter" stroke-linecap="butt" stroke-miterlimit="4" stroke-width="1.5238" d="M15.238 1.524h30.476c7.995 0 14.476 6.481 14.476 14.476s-6.481 14.476-14.476 14.476h-30.476c-7.995 0-14.476-6.481-14.476-14.476s6.481-14.476 14.476-14.476z"></path>
</symbol>

<symbol id="icon-toggle-light" viewBox="0 0 64 32">
<path style="fill: var(--color2, #fff)" d="M16 0.484h32c8.569 0 15.516 6.947 15.516 15.516s-6.947 15.516-15.516 15.516h-32c-8.569 0-15.516-6.947-15.516-15.516s6.947-15.516 15.516-15.516z"></path>
<path style="fill: var(--color1, #4b48db)" d="M27.2 16c0 7.069-5.731 12.8-12.8 12.8s-12.8-5.731-12.8-12.8c0-7.069 5.731-12.8 12.8-12.8s12.8 5.731 12.8 12.8z"></path>
<path fill="none" stroke="#4b48db" style="stroke: var(--color1, #4b48db)" stroke-linejoin="miter" stroke-linecap="butt" stroke-miterlimit="4" stroke-width="0.9675" d="M16 0.484h32c8.569 0 15.516 6.947 15.516 15.516s-6.947 15.516-15.516 15.516h-32c-8.569 0-15.516-6.947-15.516-15.516s6.947-15.516 15.516-15.516z"></path>
</symbol>

<symbol id="prew-arrow" viewBox="0 0 18 32">
<path d="M6.464 16l11.314 11.314-3.232 3.232-14.546-14.546 14.546-14.546 3.232 3.232-11.314 11.314z"></path>
</symbol>

<symbol id="next-arrow" viewBox="0 0 19 32">
<path d="M10.15 16l-9.053-9.050 4.525-4.528 13.578 13.578-13.578 13.578-4.525-4.528 9.053-9.050z"></path>
</symbol>

<symbol id="Vector-1" viewBox="0 0 43 32">
<path fill="#00dd73" style="fill: var(--color1, #00dd73)" d="M40.501 1.584c-0.432 0.014-0.819 0.197-1.098 0.485l-0 0-24.469 24.469-10.069-10.069c-0.293-0.314-0.709-0.509-1.171-0.509-0.884 0-1.6 0.716-1.6 1.6 0 0.462 0.196 0.878 0.508 1.17l0.001 0.001 11.2 11.2c0.289 0.289 0.689 0.468 1.131 0.468s0.841-0.179 1.131-0.468l25.6-25.6c0.299-0.291 0.485-0.698 0.485-1.147 0-0.884-0.716-1.6-1.6-1.6-0.017 0-0.033 0-0.050 0.001l0.002-0z"></path>
</symbol>


<symbol id="heartActive" viewBox="0 0 37 32" width="13" height="12"> 
<path fill="#4b48da" d="M9.778 0c-4.908 0-8.889 3.94-8.889 8.8 0 3.924 1.556 13.236 16.868 22.649 0.274 0.167 0.589 0.255 0.91 0.255s0.636-0.088 0.91-0.255c15.312-9.413 16.867-18.725 16.867-22.649 0-4.86-3.98-8.8-8.889-8.8s-8.889 5.333-8.889 5.333-3.98-5.333-8.889-5.333z"></path>
</symbol>

<symbol id="heartDisable" viewBox="0 0 37 32" width="13" height="12">
<path fill="none" stroke="#4440f7" stroke-linejoin="round" stroke-linecap="round" stroke-miterlimit="4" stroke-width="2.2857" d="M10.666 2.286c-4.207 0-7.619 3.377-7.619 7.543 0 3.363 1.333 11.345 14.458 19.413 0.235 0.143 0.505 0.219 0.78 0.219s0.545-0.076 0.78-0.219c13.125-8.069 14.458-16.050 14.458-19.413 0-4.166-3.412-7.543-7.619-7.543s-7.619 4.571-7.619 4.571-3.412-4.571-7.619-4.571z"></path>
 </symbol>

<symbol id="icon-telegram" viewBox="4 4 25 25">
<path d="M16 5.12c6.009 0 10.88 4.871 10.88 10.88s-4.871 10.88-10.88 10.88-10.88-4.871-10.88-10.88 4.871-10.88 10.88-10.88zM19.753 20.435c0.2-0.614 1.138-6.733 1.253-7.939 0.035-0.365-0.081-0.608-0.306-0.716-0.273-0.131-0.678-0.066-1.148 0.104-0.644 0.232-8.881 3.729-9.357 3.932-0.451 0.192-0.878 0.401-0.878 0.704 0 0.213 0.127 0.333 0.475 0.457 0.362 0.129 1.275 0.406 1.814 0.554 0.519 0.143 1.11 0.019 1.441-0.187 0.351-0.218 4.402-2.929 4.692-3.166s0.522 0.067 0.285 0.305c-0.237 0.237-3.018 2.936-3.385 3.31-0.445 0.454-0.129 0.924 0.17 1.112 0.341 0.215 2.794 1.86 3.164 2.124s0.744 0.383 1.087 0.383c0.343-0.001 0.523-0.453 0.694-0.977z"></path>
</symbol>

<symbol id="icon-mail" viewBox="-1 -1 35 35">
<path d="M16 0.64c-8.483 0-15.36 6.877-15.36 15.36s6.877 15.36 15.36 15.36 15.36-6.877 15.36-15.36-6.877-15.36-15.36-15.36zM9.97 11.2h12.032c0.638 0 0.309 0.819-0.038 1.029-0.347 0.208-5.152 3.115-5.333 3.222s-0.411 0.16-0.645 0.16c-0.008 0-0.017 0-0.026 0-0.227 0-0.439-0.059-0.624-0.164l0.006 0.003-5.334-3.222c-0.347-0.21-0.675-1.029-0.038-1.029zM22.4 20c0 0.336-0.403 0.8-0.71 0.8h-11.379c-0.307 0-0.71-0.464-0.71-0.8v-5.835c0-0.147-0.003-0.338 0.275-0.176l5.467 3.224c0.164 0.102 0.363 0.162 0.576 0.162 0.024 0 0.047-0.001 0.071-0.002l-0.003 0c0.234 0 0.403-0.018 0.645-0.16l5.494-3.222c0.278-0.163 0.275 0.029 0.275 0.176v5.834z"></path>
</symbol>

<symbol id="icon-github" viewBox="0 0 32 32">
<path d="M14.533 2.8c-6.133 0.667-11.067 5.6-11.733 11.6-0.667 6.267 2.933 11.867 8.4 14 0.4 0.133 0.8-0.133 0.8-0.667v-2.133c0 0-0.533 0.133-1.2 0.133-1.867 0-2.667-1.6-2.8-2.533-0.133-0.533-0.4-0.933-0.8-1.333-0.4-0.133-0.533-0.133-0.533-0.267 0-0.267 0.4-0.267 0.533-0.267 0.8 0 1.467 0.933 1.733 1.333 0.667 1.067 1.467 1.333 1.867 1.333 0.533 0 0.933-0.133 1.2-0.267 0.133-0.933 0.533-1.867 1.333-2.4-3.067-0.667-5.333-2.4-5.333-5.333 0-1.467 0.667-2.933 1.6-4-0.133-0.267-0.267-0.933-0.267-1.867 0-0.533 0-1.333 0.4-2.133 0 0 1.867 0 3.733 1.733 0.667-0.267 1.6-0.4 2.533-0.4s1.867 0.133 2.667 0.4c1.733-1.733 3.733-1.733 3.733-1.733 0.267 0.8 0.267 1.6 0.267 2.133 0 1.067-0.133 1.6-0.267 1.867 0.933 1.067 1.6 2.4 1.6 4 0 2.933-2.267 4.667-5.333 5.333 0.8 0.667 1.333 1.867 1.333 3.067v3.467c0 0.4 0.4 0.8 0.933 0.667 4.933-2 8.4-6.8 8.4-12.4 0-8-6.8-14.267-14.8-13.333z"></path>
</symbol>

<symbol id="icon-linkedin" viewBox="0 0 32 32">
<path d="M16 3.2c-7.069 0-12.8 5.731-12.8 12.8s5.731 12.8 12.8 12.8 12.8-5.731 12.8-12.8c0-7.069-5.731-12.8-12.8-12.8zM11.196 8.963c0.898 0 1.497 0.598 1.497 1.396s-0.598 1.396-1.596 1.396c-0.898 0.001-1.497-0.598-1.497-1.396s0.598-1.396 1.596-1.396zM12.8 21.333h-3.2v-8.533h3.2v8.533zM23.467 21.333h-3.012v-4.663c0-1.29-0.803-1.587-1.104-1.587s-1.306 0.198-1.306 1.587c0 0.198 0 4.663 0 4.663h-3.111v-8.533h3.113v1.19c0.401-0.694 1.204-1.19 2.71-1.19s2.71 1.19 2.71 3.87v4.663z"></path>
</symbol>


</defs>
</svg>

